<?xml version="1.0" standalone="no"?>
<!DOCTYPE svg PUBLIC "-//W3C//DTD SVG 20010904//EN"
 "http://www.w3.org/TR/2001/REC-SVG-20010904/DTD/svg10.dtd">
<svg version="1.0" xmlns="http://www.w3.org/2000/svg"
 width="220.000000pt" height="210.000000pt" viewBox="0 0 220.000000 210.000000"
 preserveAspectRatio="xMidYMid meet">
<metadata>
Created by potrace 1.10, written by Peter Selinger 2001-2011
</metadata>
<g transform="translate(0.000000,210.000000) scale(0.100000,-0.100000)"
fill="#000000" stroke="none">
<path d="M961 1956 c-108 -106 -138 -142 -127 -148 8 -5 70 -45 138 -91 68
-45 126 -84 131 -85 4 -2 32 19 63 47 31 28 91 68 133 89 l78 38 -138 145
-137 146 -141 -141z m246 -21 c54 -58 100 -110 101 -116 2 -5 -17 -19 -43 -30
-25 -11 -70 -40 -100 -65 -52 -42 -85 -55 -85 -34 0 6 -4 10 -10 10 -11 0
-177 107 -184 119 -5 8 203 221 216 221 3 0 51 -47 105 -105z"/>
<path d="M453 1781 c-24 -4 -46 -10 -49 -14 -10 -10 -108 -1419 -101 -1448 8
-33 41 -46 132 -52 103 -8 234 -55 464 -165 l204 -99 133 69 c247 128 441 198
549 198 55 0 91 13 105 40 8 15 -1 194 -40 738 -29 394 -56 721 -61 727 -5 5
-78 11 -162 12 -301 5 -391 -49 -647 -387 -158 -210 -404 -594 -425 -663 -7
-23 -15 -81 -19 -128 l-7 -86 55 -10 c51 -9 57 -8 75 11 17 20 277 388 501
711 122 176 187 248 252 281 59 30 105 30 148 1 66 -44 66 -41 100 -529 17
-246 30 -455 28 -464 -2 -12 -46 -29 -153 -61 -152 -45 -282 -100 -366 -153
-25 -17 -58 -30 -72 -30 -15 0 -69 24 -120 53 -113 66 -227 112 -360 146
l-102 27 -3 37 c-3 37 43 790 53 861 15 105 100 160 192 125 15 -6 60 -37 100
-69 l72 -59 66 90 67 89 -27 36 c-55 72 -181 143 -290 163 -63 12 -224 13
-292 2z m274 -32 c35 -6 63 -15 63 -20 0 -5 9 -9 20 -9 33 0 106 -39 155 -82
50 -44 53 -65 17 -109 -9 -12 -27 -33 -39 -48 l-21 -26 -29 22 c-86 69 -115
85 -166 90 -66 7 -115 -13 -153 -60 -37 -48 -50 -104 -53 -238 -1 -63 -6 -132
-10 -154 -5 -22 -9 -89 -11 -149 -1 -59 -5 -118 -9 -130 -4 -11 -8 -87 -10
-167 -4 -191 -5 -189 186 -235 41 -9 70 -21 67 -26 -4 -6 2 -8 14 -4 12 4 26
1 35 -9 9 -8 25 -15 35 -15 11 0 22 -4 24 -9 2 -5 10 -11 18 -13 8 -2 17 -5
20 -8 3 -3 21 -13 40 -22 38 -19 92 -50 100 -58 7 -7 74 -30 89 -30 7 0 9 5 6
10 -4 6 7 10 24 10 17 0 31 5 31 10 0 6 6 10 14 10 8 0 16 4 18 8 5 13 74 52
92 52 9 0 16 5 16 10 0 6 12 10 26 10 14 0 23 4 19 10 -6 10 13 14 49 10 10
-1 15 3 12 8 -8 14 17 22 45 15 15 -4 20 -3 15 5 -5 8 1 12 16 13 29 2 39 4
58 11 8 4 43 17 77 29 35 12 68 27 74 35 13 16 21 217 9 264 -4 19 -11 98 -14
175 -2 77 -7 147 -10 155 -2 8 -7 69 -10 135 -4 66 -10 145 -15 175 -5 30 -8
57 -6 58 4 4 -17 31 -58 76 -28 29 -32 31 -110 31 -55 0 -82 -4 -85 -13 -2 -6
-11 -12 -19 -12 -19 0 -130 -112 -174 -176 -18 -27 -36 -50 -41 -52 -4 -2 -8
-10 -8 -18 0 -8 -4 -14 -10 -14 -5 0 -10 -6 -10 -14 0 -8 -3 -16 -7 -18 -5 -1
-24 -27 -43 -55 -19 -29 -38 -53 -42 -53 -5 0 -8 -6 -8 -13 0 -8 -9 -22 -20
-32 -11 -10 -20 -24 -20 -31 0 -7 -4 -14 -8 -16 -5 -1 -25 -28 -44 -58 -19
-30 -47 -68 -62 -85 -14 -16 -26 -35 -26 -42 0 -6 -4 -13 -8 -15 -7 -3 -79
-101 -107 -147 -5 -9 -13 -18 -16 -21 -3 -3 -21 -27 -39 -55 -43 -63 -57 -78
-69 -71 -5 4 -12 0 -15 -6 -3 -9 -8 -8 -16 5 -6 9 -15 15 -21 12 -5 -4 -9 10
-9 29 0 20 4 36 8 36 5 0 9 18 10 40 2 46 36 124 86 199 20 29 36 57 36 62 0
5 5 9 10 9 6 0 10 7 10 15 0 8 4 15 8 15 5 0 14 12 21 28 7 15 58 95 113 177
89 132 129 186 259 347 84 104 202 198 248 198 9 0 22 5 27 10 20 20 183 34
274 24 l84 -9 8 -35 c9 -38 20 -185 57 -740 5 -85 12 -164 15 -175 3 -11 7
-75 10 -142 2 -67 6 -126 10 -131 3 -5 6 -48 7 -95 1 -68 -2 -90 -15 -103 -9
-9 -23 -13 -32 -10 -8 3 -12 2 -9 -4 4 -6 -12 -10 -41 -10 -26 0 -65 -5 -88
-11 -22 -6 -59 -15 -81 -21 -53 -14 -68 -19 -148 -56 -37 -18 -74 -32 -82 -32
-8 0 -15 -4 -15 -10 0 -5 -9 -10 -20 -10 -11 0 -20 -4 -20 -10 0 -5 -9 -10
-20 -10 -11 0 -20 -4 -20 -10 0 -5 -8 -10 -17 -10 -10 0 -29 -9 -43 -20 -14
-11 -29 -20 -33 -20 -5 0 -23 -10 -39 -22 l-30 -21 -102 51 c-55 28 -116 56
-133 64 -18 7 -33 16 -33 20 0 5 -7 8 -15 8 -18 0 -109 42 -113 53 -2 4 -12 7
-22 7 -10 0 -22 5 -25 10 -3 6 -17 10 -30 10 -13 0 -27 5 -30 10 -3 6 -21 10
-40 10 -19 0 -36 4 -39 8 -3 5 -37 10 -77 11 -72 2 -105 14 -114 41 -3 8 2
116 10 240 8 124 20 310 27 415 7 104 15 179 18 165 4 -14 7 39 8 117 0 79 3
146 6 151 2 4 8 62 12 128 4 65 7 126 8 134 3 33 27 59 59 63 68 8 183 7 244
-4z"/>
<path d="M1199 1214 l-76 -106 214 -304 c160 -226 219 -303 232 -300 9 2 35 7
58 11 l41 6 -5 82 c-3 45 -9 98 -15 117 -8 28 -308 513 -360 583 -12 16 -21 7
-89 -89z m99 11 c12 -14 22 -28 22 -31 0 -3 14 -25 30 -49 17 -24 30 -48 30
-53 0 -6 4 -12 8 -14 5 -1 33 -43 63 -93 30 -49 57 -91 62 -93 4 -2 7 -10 7
-18 0 -8 5 -14 10 -14 6 0 10 -5 10 -11 0 -6 11 -25 24 -42 33 -44 54 -95 60
-142 3 -22 9 -55 12 -74 5 -24 3 -32 -5 -27 -6 4 -14 0 -17 -8 -10 -26 -40
-18 -68 17 -15 17 -31 37 -36 44 -6 7 -10 17 -10 23 0 5 -4 10 -8 10 -4 0 -19
18 -32 40 -14 22 -28 40 -32 40 -5 0 -8 6 -8 14 0 8 -4 16 -8 18 -8 3 -50 62
-169 235 -58 84 -80 143 -53 143 6 0 10 6 10 13 0 6 14 28 30 47 16 19 30 38
30 43 0 14 17 7 38 -18z"/>
<path d="M1868 1273 c-3 -4 -2 -39 2 -77 4 -38 16 -181 26 -318 13 -178 22
-248 30 -246 7 2 71 72 144 156 l131 153 -130 137 c-163 173 -198 206 -203
195z m272 -324 c6 -11 0 -26 -23 -51 -18 -20 -57 -66 -87 -103 -64 -78 -90
-97 -90 -65 0 12 -4 74 -10 138 -5 64 -11 164 -14 222 l-5 105 111 -115 c60
-63 114 -122 118 -131z"/>
<path d="M164 1110 c-88 -89 -160 -165 -162 -170 -2 -5 23 -37 55 -72 32 -35
93 -105 137 -155 43 -51 82 -93 85 -93 4 0 17 141 30 313 13 171 26 318 28
325 14 34 -29 -2 -173 -148z m128 8 c-2 -35 -10 -133 -18 -218 -8 -85 -15
-166 -14 -180 0 -21 -5 -18 -52 32 -29 31 -79 85 -110 121 l-57 64 120 122
c66 66 123 121 127 121 5 0 6 -28 4 -62z"/>
<path d="M1087 1057 c-2 -7 -91 -136 -197 -287 -105 -151 -193 -277 -195 -280
-2 -3 33 -18 78 -34 45 -15 138 -54 206 -88 l123 -60 137 65 c75 36 167 75
204 87 37 12 67 25 65 29 -9 20 -404 580 -409 581 -4 0 -9 -6 -12 -13z m90
-150 c86 -126 184 -269 206 -298 76 -104 78 -109 51 -109 -8 0 -12 -4 -9 -10
4 -6 -7 -10 -25 -10 -18 0 -29 -4 -25 -10 6 -10 -15 -14 -44 -11 -7 2 -10 -2
-6 -8 6 -10 -14 -16 -44 -12 -7 2 -10 -2 -6 -8 6 -11 -7 -15 -34 -12 -7 2 -10
-2 -6 -8 3 -6 0 -11 -8 -11 -8 0 -35 -11 -58 -25 -24 -14 -52 -25 -61 -25 -22
0 -88 31 -88 42 0 4 -9 8 -20 8 -11 0 -20 5 -20 10 0 6 -7 10 -15 10 -15 0
-25 4 -72 28 -13 7 -32 12 -43 12 -11 0 -20 5 -20 10 0 6 -14 10 -31 10 -17 0
-28 4 -24 10 3 6 1 10 -4 10 -6 0 -11 9 -11 20 0 11 5 20 10 20 6 0 10 7 10
15 0 8 3 15 8 15 4 0 18 18 32 40 14 22 28 40 32 40 5 0 8 7 8 15 0 8 4 15 8
15 5 0 15 12 23 28 8 15 17 29 20 32 3 3 25 34 49 70 24 36 47 67 52 68 4 2 8
10 8 18 0 8 3 14 8 14 4 0 20 20 35 45 16 25 34 45 40 45 7 0 40 -42 74 -93z"/>
</g>
</svg>
